<svg width="25" height="25" viewBox="0 0 25 25" fill="none" xmlns="http://www.w3.org/2000/svg">
<path d="M18.575 21.4131L11.698 14.5043C11.3448 14.657 10.9862 14.7747 10.622 14.8573C10.258 14.94 9.87149 14.9813 9.46249 14.9813C7.89999 14.9813 6.57124 14.4338 5.47624 13.3388C4.38124 12.2438 3.83374 10.9151 3.83374 9.35257C3.83374 8.85624 3.89474 8.38091 4.01674 7.92657C4.13891 7.47207 4.31699 7.03874 4.55099 6.62657L8.08274 10.1391L10.2692 7.97257L6.77599 4.46007C7.18816 4.22624 7.61524 4.04166 8.05724 3.90632C8.49924 3.77099 8.96774 3.70332 9.46274 3.70332C11.0267 3.70332 12.3592 4.25382 13.46 5.35482C14.561 6.45582 15.1115 7.78841 15.1115 9.35257C15.1115 9.77424 15.0717 10.1672 14.9922 10.5313C14.9127 10.8955 14.7935 11.2474 14.6345 11.5871L21.5432 18.4651L18.575 21.4131Z" fill="white"/>
</svg>
