<svg width="36" height="37" viewBox="0 0 36 37" fill="none" xmlns="http://www.w3.org/2000/svg">
<path d="M6 27.3121H22.5C23.325 27.3121 24 26.6371 24 25.8121C24 24.9871 23.325 24.3121 22.5 24.3121H6C5.175 24.3121 4.5 24.9871 4.5 25.8121C4.5 26.6371 5.175 27.3121 6 27.3121ZM6 19.8121H18C18.825 19.8121 19.5 19.1371 19.5 18.3121C19.5 17.4871 18.825 16.8121 18 16.8121H6C5.175 16.8121 4.5 17.4871 4.5 18.3121C4.5 19.1371 5.175 19.8121 6 19.8121ZM4.5 10.8121C4.5 11.6371 5.175 12.3121 6 12.3121H22.5C23.325 12.3121 24 11.6371 24 10.8121C24 9.98707 23.325 9.31207 22.5 9.31207H6C5.175 9.31207 4.5 9.98707 4.5 10.8121ZM30.45 22.6321L26.13 18.3121L30.45 13.9921C31.035 13.4071 31.035 12.4621 30.45 11.8771C29.865 11.2921 28.92 11.2921 28.335 11.8771L22.95 17.2621C22.365 17.8471 22.365 18.7921 22.95 19.3771L28.335 24.7621C28.92 25.3471 29.865 25.3471 30.45 24.7621C31.02 24.1771 31.035 23.2171 30.45 22.6321Z" fill="#4190FF"/>
</svg>
